<svg width="385" height="385" viewBox="0 0 385 385" fill="none" xmlns="http://www.w3.org/2000/svg">
<path d="M319.928 201.16C319.437 202.141 319.192 202.877 319.192 203.368C317.229 204.349 315.389 205.208 313.672 205.944C312.2 206.68 310.237 206.925 307.784 206.68C306.312 206.435 304.104 206.803 301.16 207.784C298.461 208.765 296.253 209.011 294.536 208.52C293.8 208.275 293.432 208.397 293.432 208.888C293.677 209.379 293.432 209.624 292.696 209.624C291.715 209.379 291.347 208.765 291.592 207.784C291.837 206.803 291.715 206.312 291.224 206.312C290.243 206.803 289.752 207.539 289.752 208.52C289.997 209.501 289.875 210.237 289.384 210.728C287.667 209.992 286.195 210.237 284.968 211.464C283.741 212.691 282.515 213.059 281.288 212.568C280.797 212.568 280.307 212.691 279.816 212.936C279.325 212.936 278.957 213.181 278.712 213.672C275.523 213.181 272.579 213.549 269.88 214.776C267.427 215.757 265.096 216.248 262.888 216.248C261.661 216.493 260.557 216.248 259.576 215.512C258.84 214.776 257.491 214.653 255.528 215.144C254.547 215.144 253.811 215.512 253.32 216.248C252.829 216.739 252.216 217.107 251.48 217.352C250.253 217.597 249.027 217.597 247.8 217.352C246.819 216.861 245.715 216.493 244.488 216.248C243.507 215.757 242.525 215.635 241.544 215.88C240.563 215.88 239.581 216.493 238.6 217.72C238.355 217.475 237.987 216.984 237.496 216.248C235.043 217.475 232.957 218.701 231.24 219.928C229.523 220.909 227.315 221.523 224.616 221.768C223.389 221.768 222.04 221.645 220.568 221.4C219.341 220.909 217.992 220.541 216.52 220.296C215.293 220.051 214.067 220.173 212.84 220.664C211.613 221.155 210.509 222.136 209.528 223.608C206.829 224.099 204.499 224.957 202.536 226.184C200.819 227.165 198.979 228.269 197.016 229.496C195.053 228.76 192.232 228.637 188.552 229.128C188.307 229.128 188.184 229.251 188.184 229.496C188.184 229.496 188.061 229.496 187.816 229.496H186.344L179.72 230.232H179.352L169.416 230.968C164.019 231.459 159.603 232.685 156.168 234.648C150.28 236.12 146.232 238.819 144.024 242.744C142.061 243.971 139.731 245.197 137.032 246.424C135.069 246.424 133.72 246.547 132.984 246.792C131.757 246.792 130.408 246.915 128.936 247.16C127.464 247.405 126.115 247.528 124.888 247.528C122.925 247.528 120.227 247.528 116.792 247.528C113.603 247.283 111.517 248.509 110.536 251.208C109.8 251.453 109.309 251.453 109.064 251.208C108.819 250.717 108.328 250.595 107.592 250.84C107.101 250.84 106.979 251.085 107.224 251.576C107.715 252.067 107.715 252.435 107.224 252.68C105.261 252.189 103.053 252.312 100.6 253.048C98.1467 253.539 95.816 254.152 93.608 254.888C93.3627 254.888 93.1173 255.011 92.872 255.256C92.872 255.256 92.7493 255.256 92.504 255.256H91.768H90.664C90.9093 255.011 91.032 254.765 91.032 254.52C88.3333 255.011 85.512 254.888 82.568 254.152C79.8693 253.416 77.1707 253.293 74.472 253.784C72.7547 253.784 71.0373 254.152 69.32 254.888C67.3573 255.379 66.1307 254.888 65.64 253.416C64.4133 253.907 63.1867 254.029 61.96 253.784C60.7333 253.539 59.6293 253.171 58.648 252.68C58.4027 250.717 57.6667 249 56.44 247.528C54.968 246.056 53.496 244.707 52.024 243.48C50.552 242.008 49.448 240.413 48.712 238.696C47.976 236.733 47.976 234.403 48.712 231.704C49.6933 231.213 50.4293 230.723 50.92 230.232C51.1653 229.741 51.7787 229.741 52.76 230.232C53.7413 228.024 55.4587 226.429 57.912 225.448C60.12 224.467 61.592 222.749 62.328 220.296C62.8187 220.296 63.064 220.419 63.064 220.664C62.8187 220.909 62.9413 221.032 63.432 221.032C64.168 220.541 64.2907 219.928 63.8 219.192C63.3093 218.211 63.1867 217.229 63.432 216.248C64.6587 215.267 65.7627 214.285 66.744 213.304C67.48 212.077 68.7067 211.219 70.424 210.728C71.16 209.501 72.1413 208.397 73.368 207.416C74.5947 206.435 75.8213 205.576 77.048 204.84C78.2747 203.859 79.256 202.755 79.992 201.528C80.728 200.301 80.9733 198.829 80.728 197.112C81.464 196.376 82.0773 195.64 82.568 194.904C83.304 193.923 83.9173 192.941 84.408 191.96C83.9173 191.224 83.7947 190.733 84.04 190.488C84.2853 189.997 84.408 189.261 84.408 188.28C87.352 185.581 89.928 182.76 92.136 179.816C94.344 176.872 97.288 174.419 100.968 172.456C100.723 172.456 100.6 172.088 100.6 171.352C102.072 171.843 102.931 171.843 103.176 171.352C101.949 168.899 101.827 166.936 102.808 165.464C103.789 163.747 105.139 162.275 106.856 161.048C108.573 159.821 110.291 158.595 112.008 157.368C113.725 156.141 114.952 154.547 115.688 152.584H116.424C117.16 152.584 117.651 152.339 117.896 151.848C117.896 151.357 117.651 151.357 117.16 151.848C117.651 151.357 117.896 150.989 117.896 150.744C118.141 150.253 118.387 149.763 118.632 149.272L120.104 148.536C120.104 148.045 119.859 147.8 119.368 147.8C119.368 147.555 119.368 147.432 119.368 147.432C119.613 147.432 119.736 147.309 119.736 147.064C119.981 146.819 120.104 146.328 120.104 145.592H120.472C120.717 145.101 120.472 144.856 119.736 144.856V144.488C119.736 143.997 119.736 143.629 119.736 143.384C119.981 142.893 120.104 142.403 120.104 141.912C120.84 140.195 121.944 138.723 123.416 137.496C124.888 136.269 126.115 134.92 127.096 133.448C127.096 132.221 126.728 131.608 125.992 131.608C128.691 127.437 131.144 122.899 133.352 117.992C135.56 113.085 138.504 108.915 142.184 105.48C141.939 104.499 142.061 103.885 142.552 103.64C143.288 103.149 143.533 102.413 143.288 101.432C145.496 100.451 147.827 99.96 150.28 99.96C151.507 98.9787 152.488 97.9973 153.224 97.016C153.96 96.0346 154.819 95.0533 155.8 94.072C155.064 92.1093 154.819 90.2693 155.064 88.552C155.555 86.5893 155.8 84.6267 155.8 82.664C158.008 81.6827 160.093 80.824 162.056 80.088C164.264 79.1067 166.595 78.3707 169.048 77.88C168.803 77.3893 168.435 77.0213 167.944 76.776C167.699 76.2853 167.699 75.5493 167.944 74.568C168.189 73.832 168.925 73.464 170.152 73.464C171.379 73.2186 172.115 72.4827 172.36 71.256C176.285 71.7467 179.843 70.7653 183.032 68.312C186.467 65.6133 189.901 64.0187 193.336 63.528C193.581 63.528 193.704 63.6507 193.704 63.896C193.704 63.896 193.827 63.896 194.072 63.896C194.808 64.632 195.299 65.368 195.544 66.104H195.912L197.752 70.888V73.464C197.752 73.7093 197.629 73.9547 197.384 74.2L195.544 77.512C195.544 77.7573 195.421 78.0027 195.176 78.248C195.176 78.248 195.176 78.4933 195.176 78.984L194.44 80.456C194.195 80.456 193.827 80.5787 193.336 80.824C193.336 81.3147 193.459 81.6826 193.704 81.928C193.704 82.664 193.704 83.032 193.704 83.032C192.232 83.5227 191.741 84.504 192.232 85.976L191.496 86.712C191.496 87.2027 191.373 87.6933 191.128 88.184C191.128 88.4293 191.128 88.7973 191.128 89.288C190.637 89.7787 189.901 90.024 188.92 90.024C189.411 92.4773 189.165 94.44 188.184 95.912C187.203 97.1387 185.976 98.3653 184.504 99.592C184.749 100.083 184.995 100.328 185.24 100.328C185.731 100.328 185.976 100.696 185.976 101.432C185.731 101.923 185.24 102.291 184.504 102.536C184.013 102.781 183.523 102.659 183.032 102.168C183.032 104.621 182.296 106.584 180.824 108.056C179.597 109.283 178.861 111.123 178.616 113.576C177.389 114.067 176.408 114.925 175.672 116.152C175.181 117.133 174.691 118.237 174.2 119.464C173.709 120.691 173.096 121.795 172.36 122.776C171.624 123.512 170.397 123.88 168.68 123.88C168.189 124.616 168.067 125.352 168.312 126.088C168.803 126.824 169.171 127.437 169.416 127.928C169.661 128.909 169.048 129.645 167.576 130.136C167.331 130.627 167.208 130.995 167.208 131.24C167.453 131.485 167.699 131.976 167.944 132.712C164.264 135.656 161.197 139.091 158.744 143.016C156.536 146.941 154.451 150.989 152.488 155.16C151.507 155.651 150.771 156.141 150.28 156.632C149.053 159.331 147.336 161.661 145.128 163.624C142.92 165.341 141.203 167.549 139.976 170.248C139.976 170.493 139.853 170.739 139.608 170.984C139.608 170.984 139.608 171.107 139.608 171.352C138.872 171.597 138.381 172.211 138.136 173.192C137.891 174.909 137.4 176.504 136.664 177.976C135.928 179.448 135.192 180.92 134.456 182.392C133.229 183.619 131.88 184.845 130.408 186.072C128.936 187.053 127.587 188.157 126.36 189.384C126.115 191.592 125.869 193.432 125.624 194.904C125.379 196.131 125.011 197.725 124.52 199.688C121.085 202.141 118.264 205.085 116.056 208.52C114.093 211.709 112.131 215.021 110.168 218.456C109.432 218.947 108.696 219.437 107.96 219.928C107.469 220.419 107.347 221.277 107.592 222.504C109.309 221.277 111.027 220.787 112.744 221.032C114.461 221.032 116.056 221.4 117.528 222.136C118.019 222.627 118.755 223.117 119.736 223.608C120.227 223.608 120.595 223.485 120.84 223.24C122.557 222.749 123.416 221.891 123.416 220.664C125.133 218.701 127.219 216.861 129.672 215.144L138.504 212.2C141.448 211.464 144.269 211.341 146.968 211.832C147.213 211.587 147.213 211.464 146.968 211.464C146.723 211.464 146.723 211.219 146.968 210.728C147.949 211.219 148.808 211.219 149.544 210.728C150.525 210.237 151.384 209.747 152.12 209.256C155.8 209.501 158.989 209.133 161.688 208.152C164.632 206.925 167.944 205.699 171.624 204.472C172.115 204.472 172.728 204.472 173.464 204.472C174.445 204.472 175.549 204.349 176.776 204.104C177.021 204.104 177.144 204.227 177.144 204.472C177.389 204.472 177.757 204.472 178.248 204.472C178.739 204.472 179.72 204.227 181.192 203.736C181.192 203.981 181.315 204.227 181.56 204.472C182.296 203.736 183.277 203.491 184.504 203.736C185.976 203.736 186.957 204.104 187.448 204.84C188.184 204.595 188.429 204.104 188.184 203.368C188.184 202.632 187.939 202.019 187.448 201.528C189.656 201.528 191.619 200.669 193.336 198.952C196.035 198.707 199.224 198.339 202.904 197.848C206.829 197.112 209.896 197.48 212.104 198.952C213.576 198.707 214.925 198.461 216.152 198.216C217.379 197.971 218.483 197.603 219.464 197.112C222.163 196.621 224.984 196.253 227.928 196.008C230.872 195.763 233.693 195.395 236.392 194.904C238.109 194.904 239.704 194.904 241.176 194.904C242.893 194.659 244.488 194.413 245.96 194.168C246.451 194.168 246.819 194.291 247.064 194.536C247.555 194.536 248.045 194.536 248.536 194.536C251.48 194.536 254.301 194.659 257 194.904C259.944 194.904 262.765 194.659 265.464 194.168H266.568C270.739 194.413 274.787 194.413 278.712 194.168C282.637 193.923 286.563 193.555 290.488 193.064C291.469 194.536 292.941 195.272 294.904 195.272C297.112 195.027 299.32 195.027 301.528 195.272C303.736 195.272 305.821 195.395 307.784 195.64C311.219 197.848 315.021 199.688 319.192 201.16H319.928Z" fill="white"/>
<path d="M198.903 227.001C198.361 226.544 197.845 226.33 197.355 226.36C188.785 226.89 180.215 227.42 171.645 227.949C163.074 228.479 154.543 229.375 146.052 230.636C141.942 231.382 137.831 232.127 133.721 232.872C129.856 233.602 125.894 234.583 121.837 235.816L114.321 238.123C114.137 236.415 113.31 235.607 111.841 235.698C107.949 236.184 105.085 234.765 103.248 231.441C103.467 231.182 103.537 230.686 103.458 229.954C102.548 226.082 102.018 222.309 101.869 218.635C101.694 214.717 101.64 210.791 101.71 206.858C101.657 206.37 101.631 206.127 101.631 206.127C101.36 205.898 101.211 205.661 101.185 205.417C101.054 204.198 101.084 203.337 101.276 202.834C103.375 201.722 105.351 200.617 107.205 199.521C109.278 198.165 111.486 196.923 113.829 195.796C115.299 195.705 116.755 195.493 118.198 195.158C119.885 194.808 121.315 194.351 122.487 193.788C124.148 193.194 125.797 192.478 127.432 191.64C129.312 190.788 131.057 189.82 132.666 188.739C132.884 188.48 133.238 188.335 133.728 188.305C137.349 187.59 140.304 186.425 142.595 184.81C144.886 183.195 148.196 181.886 152.525 180.881C155.166 180.227 157.335 178.62 159.031 176.059C160.701 173.255 162.747 171.655 165.169 171.26C165.414 171.245 165.445 170.384 165.261 168.676L165.996 168.631C168.199 168.495 170.923 167.467 174.168 165.547C177.63 163.369 180.643 161.587 183.205 160.201C189.72 156.606 196.291 152.394 202.92 147.564C209.793 142.719 215.455 138.072 219.905 133.623C222.52 132.725 224.496 131.62 225.834 130.31C227.391 128.74 229.083 127.285 230.91 125.945C232.72 122.149 235.098 119.056 238.045 116.664C241.237 114.257 243.751 111.277 245.587 107.726C247.082 107.879 248.035 107.575 248.446 106.813C249.102 106.036 250.016 105.365 251.188 104.802C256.215 98.8435 260.849 92.6639 265.09 86.2631C269.331 79.8623 273.965 73.6827 278.992 67.7244C280.951 67.6033 282.705 67.8632 284.253 68.5042C286.019 68.8861 288.101 68.7574 290.497 68.1182C294.109 69.6138 297.708 70.9874 301.294 72.239C305.098 73.2316 308.246 75.0013 310.739 77.5482C311.981 79.9269 311.798 81.6571 310.189 82.7387C308.799 83.5613 307.885 84.2317 307.448 84.7498C306.407 86.5329 305.515 88.5524 304.772 90.8083C304.248 92.8051 303.466 94.695 302.425 96.4782C302.206 96.7372 301.852 96.8819 301.363 96.9122C301.091 96.6834 300.833 96.5765 300.589 96.5917C299.277 98.146 297.948 100.684 296.602 104.205C295.256 107.725 293.896 111.124 292.524 114.401L282.4 137.126C282.041 138.376 281.412 139.397 280.511 140.19C279.855 140.967 279.322 141.736 278.911 142.498C278.719 143.001 278.675 143.741 278.78 144.716C279.104 145.433 279.047 146.05 278.61 146.569C278.007 147.834 277.132 148.87 275.987 149.677C275.06 150.226 274.417 151.125 274.059 152.375C273.84 152.634 273.893 153.122 274.216 153.838C274.54 154.555 274.606 155.165 274.413 155.668C273.976 156.186 273.403 156.589 272.695 156.879C271.987 157.168 271.427 157.694 271.016 158.456C268.883 161.534 267.427 165.185 266.65 169.407C266.09 173.37 264.609 176.777 262.204 179.626C262.991 180.069 263.739 180.145 264.447 179.856C265.4 179.552 266.244 179.377 266.979 179.331C267.932 179.027 268.776 178.852 269.511 178.807C270.245 178.761 270.774 179.097 271.098 179.813C273.52 179.418 275.781 178.664 277.88 177.553C280.223 176.425 282.484 175.672 284.661 175.292C285.614 174.987 286.607 175.049 287.639 175.476C288.89 175.644 289.76 175.713 290.25 175.683C290.713 175.409 291.137 174.769 291.522 173.763C291.906 172.757 292.344 172.239 292.833 172.208C293.813 172.148 294.722 172.583 295.562 173.513C296.62 174.184 297.762 174.482 298.986 174.406C299.721 174.361 300.306 174.079 300.744 173.561C301.181 173.043 301.631 172.647 302.095 172.373C304.001 171.764 305.838 171.65 307.604 172.032C309.589 172.155 311.522 171.79 313.402 170.937C314.408 171.12 314.976 171.822 315.108 173.041C315.458 174.002 316.026 174.703 316.813 175.146C319.638 176.199 322.787 177.969 326.259 180.455C329.976 182.926 333.326 185.42 336.308 187.937C339.291 190.454 341.39 192.779 342.606 194.914C344.067 197.034 344.859 199.809 344.981 203.239C344.221 203.04 343.893 203.429 343.998 204.404C340.622 205.104 337.316 205.308 334.081 205.017C330.845 204.726 327.216 204.214 323.193 203.481C320.683 205.354 317.92 206.016 314.902 205.466C312.13 204.901 309.275 204.709 306.336 204.891C301.465 205.437 296.918 206.701 292.694 208.681C288.689 210.401 283.993 211.428 278.606 211.761C277.382 211.837 276.306 212.149 275.379 212.698C274.697 213.231 273.757 213.657 272.559 213.977C268.72 214.951 264.828 215.437 260.884 215.435C257.185 215.418 253.306 216.026 249.249 217.259C247.081 222.304 245.087 227.829 243.269 233.835C241.67 239.581 240.083 245.45 238.51 251.44C236.937 257.431 235.105 263.314 233.016 269.091C231.172 274.852 228.92 280.271 226.263 285.346C226.42 286.81 226.866 287.519 227.601 287.473C226.044 289.043 225.03 291.07 224.558 293.554C224.331 296.024 223.859 298.509 223.143 301.008C218.482 303.506 212.872 305.204 206.313 306.1C199.973 306.738 194.043 306.613 188.525 305.726C188.078 301.58 188.38 297.51 189.428 293.516C190.477 289.522 191.378 285.293 192.129 280.826C192.566 280.308 193.017 279.912 193.48 279.638C193.943 279.364 194.394 278.967 194.831 278.449L197.27 270.196C197.681 269.433 198.105 268.793 198.542 268.275C198.953 267.513 199.364 266.751 199.775 265.989C201.418 262.941 202.45 259.931 202.869 256.958C203.228 255.708 203.49 254.71 203.656 253.963C203.796 252.972 204.045 251.852 204.403 250.602C204.814 249.84 205.225 249.078 205.636 248.316C206.047 247.554 206.458 246.792 206.869 246.03C207.883 244.003 208.517 241.876 208.77 239.651C209.268 237.41 209.779 235.291 210.304 233.294L210.186 232.197C210.981 230.429 211.641 228.546 212.166 226.55C210.425 226.412 208.48 226.655 206.328 227.279C204.151 227.659 201.973 228.039 199.796 228.419C199.743 227.931 199.581 227.573 199.31 227.344C198.331 227.405 197.705 227.321 197.434 227.092L198.903 227.001ZM250.131 146.487C251.005 145.451 250.861 144.11 249.697 142.463C250.135 141.944 250.546 141.182 250.93 140.176L248.477 141.433C247.716 141.235 247.104 141.272 246.641 141.547C245.25 142.369 244.118 143.299 243.244 144.335C242.701 143.877 242.238 144.151 241.853 145.157C241.442 145.919 241.018 146.56 240.581 147.078C238.071 148.952 235.439 150.833 232.685 152.722C230.149 154.352 228.168 156.562 226.743 159.351C226.551 159.854 226.416 159.74 226.337 159.008C226.258 158.276 226.245 158.154 226.297 158.642C224.715 159.967 223.241 161.163 221.877 162.23C220.487 163.053 219.206 163.746 218.034 164.309L217.09 165.841L216.762 166.229C214.121 166.884 211.655 168.018 209.364 169.633C207.046 171.004 204.768 172.741 202.53 174.844C201.769 174.645 201.157 174.683 200.693 174.957C197.397 176.389 194.725 177.905 192.679 179.504C190.633 181.104 187.922 182.254 184.546 182.954C183.348 183.273 183.195 184.142 184.088 185.56C182.916 186.124 181.866 186.68 180.939 187.228C179.986 187.532 179.046 187.959 178.119 188.507C177.874 188.522 177.765 188.652 177.791 188.896C177.791 188.896 177.669 188.903 177.424 188.919L173.869 190.243L172.846 191.043C171.158 191.393 169.877 192.086 169.003 193.122C168.129 194.159 167.486 195.058 167.075 195.82C167.128 196.308 167.547 196.773 168.335 197.215C169.34 197.399 170.197 197.346 170.906 197.056L171.273 197.034C171.815 197.491 172.292 197.339 172.703 196.577L176.008 196.373C177.233 196.297 178.457 196.221 179.681 196.145C181.151 196.055 182.484 195.849 183.682 195.53C186.105 195.135 188.147 194.64 189.808 194.046C191.443 193.208 193.214 192.485 195.121 191.876C196.345 191.801 197.311 191.618 198.02 191.329L203.818 190.234C203.844 190.478 204.102 190.584 204.592 190.554L206.061 190.463C206.769 190.174 207.735 189.991 208.96 189.916L209.694 189.87C210.779 190.786 211.758 190.725 212.633 189.689C213.857 189.613 214.972 189.667 215.978 189.85C216.957 189.79 217.924 189.607 218.877 189.303L220.346 189.212C220.836 189.182 221.054 188.923 221.002 188.435L222.471 188.344C223.206 188.299 223.831 188.383 224.347 188.596L224.714 188.574L225.895 189.237C227.417 189.634 228.479 189.2 229.082 187.935C229.275 187.432 229.454 186.807 229.62 186.06C230.031 185.298 230.088 184.681 229.79 184.208C229.764 183.964 229.751 183.842 229.751 183.842C229.969 183.583 230.066 183.332 230.039 183.088C230.039 183.088 230.135 182.836 230.328 182.334C230.328 182.334 230.437 182.204 230.656 181.945L231.39 181.9C234.442 180.483 236.152 178.045 236.518 174.584C237.13 171.109 238.148 167.977 239.574 165.188C240.229 164.41 240.286 163.793 239.744 163.335C240.758 161.308 241.785 159.403 242.826 157.62C244.085 155.578 245.221 153.543 246.236 151.516C246.839 150.251 247.809 148.964 249.147 147.653L250.131 146.487Z" fill="white"/>
</svg>
